# xmcd CD database file
#
# Track frame offsets:
#	150
#	21921
#	38816
#	61740
#	80391
#	97715
#	110323
#	138440
#	153879
#	173460
#	195280
#	217240
#
# Disc length: 3277 seconds
#
# Revision: 1
# Processed by: cddbd v1.5.1PL0 Copyright (c) Steve Scherf et al.
# Submitted via: CDex 1.50
#
DISCID=8a0ccb0c
DTITLE=Quinteto Siglo Cubano - Trinidad Huella del Tiempo
DYEAR=2005
DGENRE=Salsa
TTITLE0=Cachita
TTITLE1=Besame Mucho
TTITLE2=Macusa
TTITLE3=La Paloma
TTITLE4=Besos Discretos
TTITLE5=Quizas Quizas Quizas
TTITLE6=Cha Cha Cha
TTITLE7=Ausencia
TTITLE8=Chanchan
TTITLE9=Guantanamera
TTITLE10=Hasta Siempre Comandante
TTITLE11=Los Feos
EXTD=YEAR: 2005
EXTT0=
EXTT1=
EXTT2=
EXTT3=
EXTT4=
EXTT5=
EXTT6=
EXTT7=
EXTT8=
EXTT9=
EXTT10=
EXTT11=
PLAYORDER=
